<svg viewBox="-4 -2 52 29" xmlns="http://www.w3.org/2000/svg" xmlns:xlink="http://www.w3.org/1999/xlink">
  <defs>
    <path d="M12.073 14.646c.613 0 .958.352 1.38 1.018l1.84 2.94c.69 1.135 1.264 1.918 2.606 1.918 1.34 0 1.954-.548 2.605-2.076.805-1.88 1.648-4.153 2.415-7.21.843-3.408 1.226-5.524 1.226-7.248 0-1.724-.536-2.742-2.376-3.095C19.24.423 15.83.15 12.073.15c-3.756 0-7.167.273-9.697.743C.536 1.246 0 2.263 0 3.988c0 1.724.383 3.84 1.226 7.25.767 3.055 1.61 5.327 2.415 7.208.653 1.528 1.266 2.076 2.607 2.076 1.342 0 1.917-.783 2.607-1.92l1.84-2.938c.42-.666.766-1.018 1.38-1.018zm23.572 6.197c3.22 0 5.672-1.018 6.975-2.43.69-.782 1.495-1.997.92-2.937-.498-.823-1.34-.98-2.338-.47-.996.51-2.108.783-3.373.783-1.227 0-2.53-.47-3.22-1.176-.843-.862-1.303-1.96-1.303-3.252 0-.313.19-.353.536-.078.882.705 2.185 1.057 3.948 1.057 3.26 0 6.133-2.232 6.133-5.68 0-3.643-3.372-6.347-8.47-6.347-5.71 0-10.12 3.762-10.12 10.11 0 5.915 3.834 10.42 10.312 10.42z" id="b"/>
  </defs>
  <g fill="none">
    <use fill="#000" fill-rule="evenodd" href="#b"/>
  </g>
</svg>